<svg width="354" height="162" viewBox="0 0 354 162" fill="none" xmlns="http://www.w3.org/2000/svg">
<g style="mix-blend-mode:darken">
<path d="M12.799 153H6.69V123.726H23.459V128.81H12.799V136.354H22.721V141.438H12.799V153ZM54.776 141.766C54.776 145.483 53.792 148.353 51.824 150.376C49.8833 152.399 47.232 153.41 43.87 153.41C41.7926 153.41 39.934 152.959 38.294 152.057C36.6813 151.155 35.4103 149.843 34.481 148.121C33.5516 146.372 33.087 144.253 33.087 141.766C33.087 138.049 34.0573 135.192 35.998 133.197C37.9386 131.202 40.6036 130.204 43.993 130.204C46.0976 130.204 47.9563 130.655 49.569 131.557C51.1816 132.459 52.4526 133.771 53.382 135.493C54.3113 137.188 54.776 139.279 54.776 141.766ZM39.319 141.766C39.319 143.98 39.6743 145.661 40.385 146.809C41.123 147.93 42.312 148.49 43.952 148.49C45.5646 148.49 46.7263 147.93 47.437 146.809C48.175 145.661 48.544 143.98 48.544 141.766C48.544 139.552 48.175 137.898 47.437 136.805C46.7263 135.684 45.551 135.124 43.911 135.124C42.2983 135.124 41.123 135.684 40.385 136.805C39.6743 137.898 39.319 139.552 39.319 141.766ZM85.9007 141.766C85.9007 145.483 84.9167 148.353 82.9487 150.376C81.0081 152.399 78.3567 153.41 74.9947 153.41C72.9174 153.41 71.0587 152.959 69.4187 152.057C67.8061 151.155 66.5351 149.843 65.6057 148.121C64.6764 146.372 64.2117 144.253 64.2117 141.766C64.2117 138.049 65.1821 135.192 67.1227 133.197C69.0634 131.202 71.7284 130.204 75.1177 130.204C77.2224 130.204 79.0811 130.655 80.6937 131.557C82.3064 132.459 83.5774 133.771 84.5067 135.493C85.4361 137.188 85.9007 139.279 85.9007 141.766ZM70.4437 141.766C70.4437 143.98 70.7991 145.661 71.5097 146.809C72.2477 147.93 73.4367 148.49 75.0767 148.49C76.6894 148.49 77.8511 147.93 78.5617 146.809C79.2997 145.661 79.6687 143.98 79.6687 141.766C79.6687 139.552 79.2997 137.898 78.5617 136.805C77.8511 135.684 76.6757 135.124 75.0357 135.124C73.4231 135.124 72.2477 135.684 71.5097 136.805C70.7991 137.898 70.4437 139.552 70.4437 141.766ZM106.119 148.531C106.803 148.531 107.459 148.463 108.087 148.326C108.716 148.189 109.345 148.025 109.973 147.834V152.385C109.317 152.658 108.497 152.891 107.513 153.082C106.557 153.301 105.504 153.41 104.356 153.41C103.017 153.41 101.814 153.191 100.748 152.754C99.7098 152.317 98.8762 151.565 98.2475 150.499C97.6462 149.406 97.3455 147.902 97.3455 145.989V135.206H94.4345V132.623L97.7965 130.573L99.5595 125.858H103.454V130.614H109.727V135.206H103.454V145.989C103.454 146.836 103.7 147.479 104.192 147.916C104.684 148.326 105.327 148.531 106.119 148.531ZM126.316 128.195C126.316 129.288 126.275 130.341 126.193 131.352C126.138 132.363 126.083 133.074 126.029 133.484H126.357C127.067 132.336 127.983 131.502 129.104 130.983C130.224 130.464 131.468 130.204 132.835 130.204C135.267 130.204 137.208 130.86 138.657 132.172C140.133 133.457 140.871 135.534 140.871 138.404V153H134.762V139.921C134.762 136.696 133.559 135.083 131.154 135.083C129.322 135.083 128.051 135.725 127.341 137.01C126.657 138.267 126.316 140.085 126.316 142.463V153H120.207V121.84H126.316V128.195ZM155.968 121.84C156.87 121.84 157.649 122.059 158.305 122.496C158.961 122.906 159.289 123.685 159.289 124.833C159.289 125.954 158.961 126.733 158.305 127.17C157.649 127.607 156.87 127.826 155.968 127.826C155.039 127.826 154.246 127.607 153.59 127.17C152.961 126.733 152.647 125.954 152.647 124.833C152.647 123.685 152.961 122.906 153.59 122.496C154.246 122.059 155.039 121.84 155.968 121.84ZM159.002 130.614V153H152.893V130.614H159.002ZM177.234 153H171.125V121.84H177.234V153ZM195.466 153H189.357V121.84H195.466V153ZM260.749 123.726L253.287 153H246.235L242.258 137.625C242.176 137.324 242.067 136.873 241.93 136.272C241.821 135.671 241.684 135.015 241.52 134.304C241.384 133.593 241.261 132.924 241.151 132.295C241.042 131.639 240.96 131.133 240.905 130.778C240.878 131.133 240.796 131.639 240.659 132.295C240.55 132.924 240.427 133.593 240.29 134.304C240.154 134.987 240.017 135.643 239.88 136.272C239.744 136.873 239.634 137.338 239.552 137.666L235.616 153H228.564L221.102 123.726H227.211L230.942 139.716C231.106 140.345 231.284 141.137 231.475 142.094C231.667 143.051 231.844 144.007 232.008 144.964C232.172 145.921 232.295 146.727 232.377 147.383C232.459 146.7 232.582 145.893 232.746 144.964C232.91 144.007 233.074 143.092 233.238 142.217C233.43 141.315 233.594 140.618 233.73 140.126L237.994 123.726H243.857L248.121 140.126C248.258 140.591 248.408 141.274 248.572 142.176C248.764 143.078 248.941 144.007 249.105 144.964C249.269 145.921 249.392 146.727 249.474 147.383C249.556 146.7 249.679 145.893 249.843 144.964C250.007 144.007 250.185 143.051 250.376 142.094C250.595 141.137 250.773 140.345 250.909 139.716L254.64 123.726H260.749ZM278.062 130.163C281.069 130.163 283.365 130.819 284.95 132.131C286.563 133.416 287.369 135.397 287.369 138.076V153H283.105L281.916 149.966H281.752C280.796 151.169 279.784 152.043 278.718 152.59C277.652 153.137 276.19 153.41 274.331 153.41C272.336 153.41 270.682 152.836 269.37 151.688C268.058 150.513 267.402 148.722 267.402 146.317C267.402 143.939 268.236 142.19 269.903 141.069C271.571 139.921 274.072 139.292 277.406 139.183L281.301 139.06V138.076C281.301 136.901 280.987 136.04 280.358 135.493C279.757 134.946 278.91 134.673 277.816 134.673C276.723 134.673 275.657 134.837 274.618 135.165C273.58 135.466 272.541 135.848 271.502 136.313L269.493 132.172C270.696 131.543 272.022 131.051 273.47 130.696C274.946 130.341 276.477 130.163 278.062 130.163ZM278.923 142.709C276.955 142.764 275.589 143.119 274.823 143.775C274.058 144.431 273.675 145.292 273.675 146.358C273.675 147.287 273.949 147.957 274.495 148.367C275.042 148.75 275.753 148.941 276.627 148.941C277.939 148.941 279.046 148.558 279.948 147.793C280.85 147 281.301 145.893 281.301 144.472V142.627L278.923 142.709ZM314.983 146.358C314.983 148.627 314.177 150.376 312.564 151.606C310.979 152.809 308.601 153.41 305.43 153.41C303.872 153.41 302.533 153.301 301.412 153.082C300.292 152.891 299.171 152.563 298.05 152.098V147.055C299.253 147.602 300.551 148.053 301.945 148.408C303.339 148.763 304.569 148.941 305.635 148.941C306.838 148.941 307.685 148.763 308.177 148.408C308.697 148.053 308.956 147.588 308.956 147.014C308.956 146.631 308.847 146.29 308.628 145.989C308.437 145.688 308 145.347 307.316 144.964C306.633 144.581 305.567 144.089 304.118 143.488C302.724 142.887 301.576 142.299 300.674 141.725C299.772 141.124 299.103 140.413 298.665 139.593C298.228 138.746 298.009 137.693 298.009 136.436C298.009 134.359 298.816 132.801 300.428 131.762C302.041 130.723 304.187 130.204 306.865 130.204C308.259 130.204 309.585 130.341 310.842 130.614C312.1 130.887 313.398 131.338 314.737 131.967L312.892 136.354C311.799 135.889 310.76 135.507 309.776 135.206C308.792 134.878 307.795 134.714 306.783 134.714C304.979 134.714 304.077 135.206 304.077 136.19C304.077 136.545 304.187 136.873 304.405 137.174C304.651 137.447 305.102 137.748 305.758 138.076C306.442 138.404 307.439 138.841 308.751 139.388C310.036 139.907 311.143 140.454 312.072 141.028C313.002 141.575 313.712 142.272 314.204 143.119C314.724 143.939 314.983 145.019 314.983 146.358ZM331.591 128.195C331.591 129.288 331.55 130.341 331.468 131.352C331.414 132.363 331.359 133.074 331.304 133.484H331.632C332.343 132.336 333.259 131.502 334.379 130.983C335.5 130.464 336.744 130.204 338.11 130.204C340.543 130.204 342.484 130.86 343.932 132.172C345.408 133.457 346.146 135.534 346.146 138.404V153H340.037V139.921C340.037 136.696 338.835 135.083 336.429 135.083C334.598 135.083 333.327 135.725 332.616 137.01C331.933 138.267 331.591 140.085 331.591 142.463V153H325.482V121.84H331.591V128.195Z" fill="#1E3799"/>
</g>
<path d="M8 109L49.5 104.5L80.4885 110.363C84.4642 111.115 88.5423 111.151 92.5309 110.47L107 108L140.625 104.903C143.53 104.635 146.473 104.745 149.35 105.225C154.367 106.061 159.536 105.766 164.422 104.352L167.594 103.433C173.108 101.837 178.937 101.663 184.537 102.928L187.802 103.665C190.26 104.22 192.771 104.5 195.291 104.5H199.5C208.071 105.135 216.495 102.005 222.572 95.9279L224 94.5L234.873 102.864C236.277 103.944 237.881 104.735 239.593 105.191C242.755 106.035 246.116 105.692 249.043 104.229L255.245 101.128C259.258 99.1211 263.893 98.7477 268.175 100.086C273.964 101.895 280.278 100.549 284.825 96.5364L286 95.5L290.046 96.9451C291.998 97.6423 293.804 98.6966 295.37 100.054C298.66 102.905 302.931 104.36 307.277 104.109L326.5 103L342.62 104.125C346.184 104.373 349.766 104.059 353.232 103.192L354 103C350.123 106.231 345.236 108 340.19 108H305H296.5H264L232.402 106.665C229.809 106.555 227.212 106.743 224.663 107.224L207.397 110.482C203.822 111.156 200.162 111.253 196.557 110.767L176 108H166.622C164.545 108 162.473 108.19 160.431 108.568L150 110.5L135.5 111.5H119.495C117.834 111.5 116.175 111.622 114.532 111.864L90.8486 115.358C87.9615 115.784 85.0317 115.837 82.1312 115.515L46 111.5L0 111L8 109Z" fill="#1E3799"/>
<path d="M79.5 47L100 65.5L130.5 37.5L141.5 49L157.5 33.5L175.5 45.5L216 0L257.5 57.5L271.5 49L299.5 87L331 106L294.5 93.5L271 60.5L258 87L257.5 80.5L253.5 87L246 99.5L243.5 94L240 95L249.5 75L245.5 80L233 98.5L248 60L215 14.5L211 20L218 32.5L211 30L210.5 38L219 49L208 69L212.5 89.5L199 69.5L206 55L196.5 65L200.5 44L192.5 63L175.5 70.5L183.5 49.5L196.5 32.5L180.5 49L169.5 65L172 51L159 42L145.5 53L170 76.5L198.5 94L163.5 79L130.5 47L122 54H128.5L122 66.5L129.5 59L130 69L123 79.5L138.5 102.5L113 87L85.5 97L79.5 104.5L83 95L97.5 84L113.5 67H107.5L97.5 76L92.5 67L81.5 55.5L74 67L80.5 62L82 63V76L64.5 100L46.5 101L59 94L65.5 85L56.5 93L52 95L20.5 108L55 83L79.5 47Z" fill="#1E3799"/>
</svg>
