<svg width="341" height="33" viewBox="0 0 341 33" fill="none" xmlns="http://www.w3.org/2000/svg">
<g style="mix-blend-mode:darken">
<path d="M6.799 32H0.69V2.726H17.459V7.81H6.799V15.354H16.721V20.438H6.799V32ZM48.776 20.766C48.776 24.4833 47.792 27.3533 45.824 29.376C43.8833 31.3987 41.232 32.41 37.87 32.41C35.7926 32.41 33.934 31.959 32.294 31.057C30.6813 30.155 29.4103 28.843 28.481 27.121C27.5516 25.3717 27.087 23.2533 27.087 20.766C27.087 17.0487 28.0573 14.1923 29.998 12.197C31.9386 10.2017 34.6036 9.204 37.993 9.204C40.0976 9.204 41.9563 9.655 43.569 10.557C45.1816 11.459 46.4526 12.771 47.382 14.493C48.3113 16.1877 48.776 18.2787 48.776 20.766ZM33.319 20.766C33.319 22.98 33.6743 24.661 34.385 25.809C35.123 26.9297 36.312 27.49 37.952 27.49C39.5646 27.49 40.7263 26.9297 41.437 25.809C42.175 24.661 42.544 22.98 42.544 20.766C42.544 18.552 42.175 16.8983 41.437 15.805C40.7263 14.6843 39.551 14.124 37.911 14.124C36.2983 14.124 35.123 14.6843 34.385 15.805C33.6743 16.8983 33.319 18.552 33.319 20.766ZM79.9007 20.766C79.9007 24.4833 78.9167 27.3533 76.9487 29.376C75.0081 31.3987 72.3567 32.41 68.9947 32.41C66.9174 32.41 65.0587 31.959 63.4187 31.057C61.8061 30.155 60.5351 28.843 59.6057 27.121C58.6764 25.3717 58.2117 23.2533 58.2117 20.766C58.2117 17.0487 59.1821 14.1923 61.1227 12.197C63.0634 10.2017 65.7284 9.204 69.1177 9.204C71.2224 9.204 73.0811 9.655 74.6937 10.557C76.3064 11.459 77.5774 12.771 78.5067 14.493C79.4361 16.1877 79.9007 18.2787 79.9007 20.766ZM64.4437 20.766C64.4437 22.98 64.7991 24.661 65.5097 25.809C66.2477 26.9297 67.4367 27.49 69.0767 27.49C70.6894 27.49 71.8511 26.9297 72.5617 25.809C73.2997 24.661 73.6687 22.98 73.6687 20.766C73.6687 18.552 73.2997 16.8983 72.5617 15.805C71.8511 14.6843 70.6757 14.124 69.0357 14.124C67.4231 14.124 66.2477 14.6843 65.5097 15.805C64.7991 16.8983 64.4437 18.552 64.4437 20.766ZM100.119 27.531C100.803 27.531 101.459 27.4627 102.087 27.326C102.716 27.1893 103.345 27.0253 103.973 26.834V31.385C103.317 31.6583 102.497 31.8907 101.513 32.082C100.557 32.3007 99.5045 32.41 98.3565 32.41C97.0172 32.41 95.8145 32.1913 94.7485 31.754C93.7098 31.3167 92.8762 30.565 92.2475 29.499C91.6462 28.4057 91.3455 26.9023 91.3455 24.989V14.206H88.4345V11.623L91.7965 9.573L93.5595 4.858H97.4545V9.614H103.727V14.206H97.4545V24.989C97.4545 25.8363 97.7005 26.4787 98.1925 26.916C98.6845 27.326 99.3268 27.531 100.119 27.531ZM120.316 7.195C120.316 8.28833 120.275 9.34067 120.193 10.352C120.138 11.3633 120.083 12.074 120.029 12.484H120.357C121.067 11.336 121.983 10.5023 123.104 9.983C124.224 9.46367 125.468 9.204 126.835 9.204C129.267 9.204 131.208 9.86 132.657 11.172C134.133 12.4567 134.871 14.534 134.871 17.404V32H128.762V18.921C128.762 15.6957 127.559 14.083 125.154 14.083C123.322 14.083 122.051 14.7253 121.341 16.01C120.657 17.2673 120.316 19.085 120.316 21.463V32H114.207V0.839998H120.316V7.195ZM149.968 0.839998C150.87 0.839998 151.649 1.05867 152.305 1.496C152.961 1.906 153.289 2.685 153.289 3.833C153.289 4.95367 152.961 5.73267 152.305 6.17C151.649 6.60733 150.87 6.826 149.968 6.826C149.039 6.826 148.246 6.60733 147.59 6.17C146.961 5.73267 146.647 4.95367 146.647 3.833C146.647 2.685 146.961 1.906 147.59 1.496C148.246 1.05867 149.039 0.839998 149.968 0.839998ZM153.002 9.614V32H146.893V9.614H153.002ZM171.234 32H165.125V0.839998H171.234V32ZM189.466 32H183.357V0.839998H189.466V32ZM254.749 2.726L247.287 32H240.235L236.258 16.625C236.176 16.3243 236.067 15.8733 235.93 15.272C235.821 14.6707 235.684 14.0147 235.52 13.304C235.384 12.5933 235.261 11.9237 235.151 11.295C235.042 10.639 234.96 10.1333 234.905 9.778C234.878 10.1333 234.796 10.639 234.659 11.295C234.55 11.9237 234.427 12.5933 234.29 13.304C234.154 13.9873 234.017 14.6433 233.88 15.272C233.744 15.8733 233.634 16.338 233.552 16.666L229.616 32H222.564L215.102 2.726H221.211L224.942 18.716C225.106 19.3447 225.284 20.1373 225.475 21.094C225.667 22.0507 225.844 23.0073 226.008 23.964C226.172 24.9207 226.295 25.727 226.377 26.383C226.459 25.6997 226.582 24.8933 226.746 23.964C226.91 23.0073 227.074 22.0917 227.238 21.217C227.43 20.315 227.594 19.618 227.73 19.126L231.994 2.726H237.857L242.121 19.126C242.258 19.5907 242.408 20.274 242.572 21.176C242.764 22.078 242.941 23.0073 243.105 23.964C243.269 24.9207 243.392 25.727 243.474 26.383C243.556 25.6997 243.679 24.8933 243.843 23.964C244.007 23.0073 244.185 22.0507 244.376 21.094C244.595 20.1373 244.773 19.3447 244.909 18.716L248.64 2.726H254.749ZM272.062 9.163C275.069 9.163 277.365 9.819 278.95 11.131C280.563 12.4157 281.369 14.3973 281.369 17.076V32H277.105L275.916 28.966H275.752C274.796 30.1687 273.784 31.0433 272.718 31.59C271.652 32.1367 270.19 32.41 268.331 32.41C266.336 32.41 264.682 31.836 263.37 30.688C262.058 29.5127 261.402 27.7223 261.402 25.317C261.402 22.939 262.236 21.1897 263.903 20.069C265.571 18.921 268.072 18.2923 271.406 18.183L275.301 18.06V17.076C275.301 15.9007 274.987 15.0397 274.358 14.493C273.757 13.9463 272.91 13.673 271.816 13.673C270.723 13.673 269.657 13.837 268.618 14.165C267.58 14.4657 266.541 14.8483 265.502 15.313L263.493 11.172C264.696 10.5433 266.022 10.0513 267.47 9.696C268.946 9.34067 270.477 9.163 272.062 9.163ZM272.923 21.709C270.955 21.7637 269.589 22.119 268.823 22.775C268.058 23.431 267.675 24.292 267.675 25.358C267.675 26.2873 267.949 26.957 268.495 27.367C269.042 27.7497 269.753 27.941 270.627 27.941C271.939 27.941 273.046 27.5583 273.948 26.793C274.85 26.0003 275.301 24.8933 275.301 23.472V21.627L272.923 21.709ZM308.983 25.358C308.983 27.6267 308.177 29.376 306.564 30.606C304.979 31.8087 302.601 32.41 299.43 32.41C297.872 32.41 296.533 32.3007 295.412 32.082C294.292 31.8907 293.171 31.5627 292.05 31.098V26.055C293.253 26.6017 294.551 27.0527 295.945 27.408C297.339 27.7633 298.569 27.941 299.635 27.941C300.838 27.941 301.685 27.7633 302.177 27.408C302.697 27.0527 302.956 26.588 302.956 26.014C302.956 25.6313 302.847 25.2897 302.628 24.989C302.437 24.6883 302 24.3467 301.316 23.964C300.633 23.5813 299.567 23.0893 298.118 22.488C296.724 21.8867 295.576 21.299 294.674 20.725C293.772 20.1237 293.103 19.413 292.665 18.593C292.228 17.7457 292.009 16.6933 292.009 15.436C292.009 13.3587 292.816 11.8007 294.428 10.762C296.041 9.72333 298.187 9.204 300.865 9.204C302.259 9.204 303.585 9.34067 304.842 9.614C306.1 9.88733 307.398 10.3383 308.737 10.967L306.892 15.354C305.799 14.8893 304.76 14.5067 303.776 14.206C302.792 13.878 301.795 13.714 300.783 13.714C298.979 13.714 298.077 14.206 298.077 15.19C298.077 15.5453 298.187 15.8733 298.405 16.174C298.651 16.4473 299.102 16.748 299.758 17.076C300.442 17.404 301.439 17.8413 302.751 18.388C304.036 18.9073 305.143 19.454 306.072 20.028C307.002 20.5747 307.712 21.2717 308.204 22.119C308.724 22.939 308.983 24.0187 308.983 25.358ZM325.591 7.195C325.591 8.28833 325.55 9.34067 325.468 10.352C325.414 11.3633 325.359 12.074 325.304 12.484H325.632C326.343 11.336 327.259 10.5023 328.379 9.983C329.5 9.46367 330.744 9.204 332.11 9.204C334.543 9.204 336.484 9.86 337.932 11.172C339.408 12.4567 340.146 14.534 340.146 17.404V32H334.037V18.921C334.037 15.6957 332.835 14.083 330.429 14.083C328.598 14.083 327.327 14.7253 326.616 16.01C325.933 17.2673 325.591 19.085 325.591 21.463V32H319.482V0.839998H325.591V7.195Z" fill="#F3F3F3"/>
</g>
</svg>
